# xmcd
#
# Track frame offsets:
#	150
#	12890
#	30830
#	41622
#	66790
#	81240
#	93975
#	105260
#	117182
#	128052
#	140507
#	153145
#	169030
#	187485
#	198155
#	213782
#	227525
#	240770
#	259440
#
# Disc length: 3750 seconds
#
# Revision: 1
# Processed by: cddbd v1.4PL0 Copyright (c) Steve Scherf et al.
# Submitted via: audiograbber 1.80.04
#
DISCID=eb0ea413
DTITLE=Howlin´ Wolf - Little Red Rooster - Live Recordings
DYEAR=1900
DGENRE=
TTITLE0=I Ain´t Superstitious
TTITLE1=Goin´ Down Slow
TTITLE2=Somebody In My Home
TTITLE3=Little Red Rooster
TTITLE4=I Walked From Dallas
TTITLE5=My Mind Is Ramblin´
TTITLE6=My Country Sugar Mama
TTITLE7=Louise
TTITLE8=Hold On To Your Money
TTITLE9=Streamline Woman
TTITLE10=Cause Of It All
TTITLE11=The Killing Floor
TTITLE12=Commit A Crime
TTITLE13=Built For Comfort
TTITLE14=Do The Do
TTITLE15=Highway 49
TTITLE16=Worried About You
TTITLE17=Poor Boy
TTITLE18=Wang Dang Doodle
EXTD=
EXTT0=
EXTT1=
EXTT2=
EXTT3=
EXTT4=
EXTT5=
EXTT6=
EXTT7=
EXTT8=
EXTT9=
EXTT10=
EXTT11=
EXTT12=
EXTT13=
EXTT14=
EXTT15=
EXTT16=
EXTT17=
EXTT18=
PLAYORDER=
